<?xml version="1.0" encoding="utf-8"?>
<!-- Generator: Adobe Illustrator 20.0.0, SVG Export Plug-In . SVG Version: 6.00 Build 0)  -->
<svg version="1.1" id="Layer_1" xmlns="http://www.w3.org/2000/svg" xmlns:xlink="http://www.w3.org/1999/xlink" x="0px" y="0px"
	 viewBox="0 0 279.1 36.8" style="enable-background:new 0 0 279.1 36.8;" xml:space="preserve">
<style type="text/css">
	.st0{fill:#FFFFFF;}
</style>
<g>
	<g>
		<g>
			<path class="st0" d="M54.4,29.9v-2.2c0.5-0.1,1-0.2,1.4-0.2l-5.5-6.6v6.5c0.6,0.1,1.2,0.2,1.8,0.3v2.2h-7.7v-2.2
				c0.7-0.2,1.6-0.3,2.4-0.4V14c-0.8-0.1-1.7-0.2-2.4-0.4v-2.2H52v2.2c-0.6,0.2-1.2,0.3-1.8,0.3v6.1l5.5-6.2c-0.4,0-1-0.1-1.4-0.2
				v-2.2h7.5v2.2c-0.5,0.1-1.2,0.2-1.7,0.3l-5.9,6.4l6.2,7.1c0.5,0.1,1.2,0.2,1.7,0.3v2.2H54.4z"/>
			<path class="st0" d="M73.8,29.9v-8.7c0-1.4-0.4-2.2-1.7-2.2c-1.8,0-3.2,2-3.2,4.4v4c0.7,0.1,1.4,0.2,2,0.3v2.2h-7.9v-2.2
				c0.7-0.2,1.6-0.3,2.4-0.4V19c-0.7-0.1-1.6-0.2-2.4-0.3v-2.2c1.8-0.2,3.9-0.3,5.7-0.2c0,0.6-0.1,1.7-0.2,2.5h0
				c0.8-1.6,2.4-2.7,4.6-2.7c3.1,0,4.1,1.9,4.1,4.3v7c0.8,0.1,1.6,0.2,2.2,0.4v2.2H73.8z"/>
			<path class="st0" d="M80.3,29.9v-2.2c0.7-0.2,1.6-0.3,2.4-0.4V19c-0.7-0.1-1.6-0.2-2.4-0.3v-2.2c1.8-0.2,3.9-0.3,5.9-0.2v11.1
				c0.8,0.1,1.6,0.2,2.2,0.4v2.2H80.3z M84.4,14.3c-1.2,0-2.2-0.9-2.2-2.1c0-1.2,1-2.1,2.2-2.1c1.2,0,2.2,0.9,2.2,2.1
				C86.6,13.3,85.6,14.3,84.4,14.3z"/>
			<path class="st0" d="M95.2,36.8c-3.6,0-5.8-1.4-5.8-4.1c0-1.4,1-2.7,2.1-3.3c-0.8-0.4-1.3-1.2-1.3-2.1c0-1.1,0.7-2,1.6-2.4
				c-1.3-0.7-2-1.9-2-3.7c0-2.7,2-5.1,6-5.1c0.9,0,1.5,0.1,2.2,0.3h4.6V19h-1.9c0.4,0.4,0.7,1,0.7,1.7c0,2.9-1.9,4.9-5.8,4.9
				c-0.4,0-0.7,0-1.1-0.1c-0.4,0.2-0.7,0.5-0.7,0.9c0,0.6,0.5,0.8,2.1,0.8l2.1,0.1c2.9,0.1,4.6,1.4,4.6,4
				C102.7,34.3,99.8,36.8,95.2,36.8z M97.1,30.1L94.7,30h-0.6c-0.8,0.6-1.3,1.3-1.3,2.1c0,1.3,1.1,2,2.9,2c2.3,0,3.5-1,3.5-2.3
				C99.2,30.8,98.6,30.1,97.1,30.1z M95.6,18.5c-1.6,0-2.5,1-2.5,2.4c0,1.5,0.9,2.4,2.5,2.4c1.5,0,2.5-0.9,2.5-2.3
				C98.1,19.5,97.2,18.5,95.6,18.5z"/>
			<path class="st0" d="M114,29.9v-8.7c0-1.4-0.4-2.2-1.7-2.2c-1.8,0-3.2,2-3.2,4.4v4c0.7,0.1,1.4,0.2,2,0.3v2.2h-7.7v-2.2
				c0.7-0.2,1.5-0.3,2.2-0.4V12.6c-0.7-0.1-1.6-0.2-2.3-0.3v-2.2c1.7-0.2,3.8-0.3,5.8-0.2v5.9c0,0.8-0.1,1.9-0.2,2.8h0
				c0.8-1.5,2.4-2.5,4.5-2.5c3.1,0,4.1,1.9,4.1,4.3v7c0.7,0.1,1.5,0.2,2.2,0.4v2.2H114z"/>
			<path class="st0" d="M126.3,30.2c-3,0-3.9-1.1-3.9-4.3V19H120v-2.7h2.4v-4.2l3.5-0.9v5.1h3.3V19h-3.3v6c0,1.8,0.4,2.2,1.6,2.2
				c0.6,0,1.1-0.1,1.6-0.2l0.2,2.8C128.3,30,127.2,30.2,126.3,30.2z"/>
			<path class="st0" d="M146,16.2c-0.1-0.6-0.2-1.2-0.3-1.9h-3.7v5.1h3.1c0.1-0.5,0.2-1,0.3-1.5h2.3v5.7h-2.3
				c-0.1-0.5-0.2-1-0.3-1.5h-3.1v5.3c0.8,0.1,1.7,0.2,2.4,0.4v2.2h-8.3v-2.2c0.7-0.2,1.6-0.3,2.4-0.4V14c-0.8-0.1-1.7-0.2-2.4-0.4
				v-2.2h12.6v4.7H146z"/>
			<path class="st0" d="M156.5,30.2c-3.9,0-6.4-2-6.4-6.8c0-4.3,2.8-7.4,7-7.4c3.9,0,6.4,2.1,6.4,6.8
				C163.5,27.1,160.6,30.2,156.5,30.2z M156.9,19c-1.6,0-3.1,1.2-3.1,4.1c0,2.7,1,4.1,3,4.1c1.7,0,3-1.4,3-4.1
				C159.9,20.4,158.9,19,156.9,19z"/>
			<path class="st0" d="M175.3,29.9c0-0.7,0.1-1.7,0.2-2.5h-0.1c-0.8,1.6-2.4,2.7-4.6,2.7c-3.1,0-4.1-1.9-4.1-4.3V19
				c-0.7-0.1-1.5-0.2-2.2-0.3v-2.2c1.6-0.2,3.7-0.3,5.7-0.2V25c0,1.4,0.4,2.2,1.7,2.2c1.8,0,3.2-2,3.2-4.4V19
				c-0.6-0.1-1.3-0.2-2-0.2v-2.2c1.6-0.2,3.6-0.2,5.5-0.2v11c0.7,0.1,1.5,0.2,2.2,0.3v2.2C179.2,29.9,177.1,30,175.3,29.9z"/>
			<path class="st0" d="M192.2,29.9v-8.7c0-1.4-0.4-2.2-1.7-2.2c-1.8,0-3.2,2-3.2,4.4v4c0.7,0.1,1.4,0.2,2,0.3v2.2h-7.9v-2.2
				c0.7-0.2,1.6-0.3,2.4-0.4V19c-0.7-0.1-1.6-0.2-2.4-0.3v-2.2c1.8-0.2,3.9-0.3,5.7-0.2c0,0.6-0.1,1.7-0.2,2.5h0
				c0.8-1.6,2.4-2.7,4.6-2.7c3.1,0,4.1,1.9,4.1,4.3v7c0.8,0.1,1.6,0.2,2.2,0.4v2.2H192.2z"/>
			<path class="st0" d="M208.1,29.9c0-0.7,0.1-1.6,0.2-2.3h-0.1c-0.7,1.5-2.2,2.6-4.3,2.6c-3.3,0-5-2.5-5-6.4c0-4.6,2.7-7.8,7.2-7.8
				c0.6,0,1.1,0,1.7,0.1v-3.6c-0.7-0.1-1.6-0.2-2.4-0.3v-2.2c1.7-0.2,3.9-0.3,5.9-0.2v17.3c0.7,0.1,1.6,0.2,2.2,0.3v2.2
				C212,29.9,209.9,30,208.1,29.9z M207.9,19c-0.6-0.1-1.2-0.2-1.8-0.2c-2,0-3.4,1.3-3.4,4.6c0,2.5,0.7,3.9,2.3,3.9
				c1.8,0,2.9-2.1,2.9-4.5V19z"/>
			<path class="st0" d="M222.8,29.9c0-0.8,0-1.6,0.1-2.3l0,0c-0.7,1.5-2.3,2.6-4.4,2.6c-2.4,0-3.9-1.5-3.9-3.7
				c0-3.3,3.2-4.8,7.9-4.8v-0.8c0-1.5-0.6-2.3-2.4-2.3c-0.7,0-1.4,0.1-2,0.3c-0.1,0.5-0.1,1.2-0.3,1.8h-2.2v-4
				c1.4-0.4,3.1-0.7,4.7-0.7c4.5,0,5.7,1.8,5.7,4.7v6.5c0.7,0.1,1.5,0.2,2.2,0.3v2.2C226.6,29.9,224.5,30,222.8,29.9z M222.5,23.9
				c-3.1,0-4.5,0.7-4.5,2.1c0,0.9,0.6,1.6,1.6,1.6c1.7,0,2.9-1.6,2.9-3.3V23.9z"/>
			<path class="st0" d="M234.7,30.2c-3,0-3.9-1.1-3.9-4.3V19h-2.4v-2.7h2.4v-4.2l3.5-0.9v5.1h3.3V19h-3.3v6c0,1.8,0.4,2.2,1.6,2.2
				c0.6,0,1.1-0.1,1.6-0.2l0.2,2.8C236.8,30,235.7,30.2,234.7,30.2z"/>
			<path class="st0" d="M238.9,29.9v-2.2c0.7-0.2,1.6-0.3,2.4-0.4V19c-0.7-0.1-1.6-0.2-2.4-0.3v-2.2c1.8-0.2,3.9-0.3,5.9-0.2v11.1
				c0.8,0.1,1.6,0.2,2.2,0.4v2.2H238.9z M243.1,14.3c-1.2,0-2.2-0.9-2.2-2.1c0-1.2,1-2.1,2.2-2.1c1.2,0,2.2,0.9,2.2,2.1
				C245.3,13.3,244.3,14.3,243.1,14.3z"/>
			<path class="st0" d="M254.4,30.2c-3.9,0-6.4-2-6.4-6.8c0-4.3,2.8-7.4,7-7.4c3.9,0,6.4,2.1,6.4,6.8
				C261.4,27.1,258.5,30.2,254.4,30.2z M254.8,19c-1.6,0-3.1,1.2-3.1,4.1c0,2.7,1,4.1,3,4.1c1.7,0,3-1.4,3-4.1
				C257.7,20.4,256.8,19,254.8,19z"/>
			<path class="st0" d="M273.4,29.9v-8.7c0-1.4-0.4-2.2-1.7-2.2c-1.8,0-3.2,2-3.2,4.4v4c0.7,0.1,1.4,0.2,2,0.3v2.2h-7.9v-2.2
				c0.7-0.2,1.6-0.3,2.4-0.4V19c-0.7-0.1-1.6-0.2-2.4-0.3v-2.2c1.8-0.2,3.9-0.3,5.7-0.2c0,0.6-0.1,1.7-0.2,2.5h0
				c0.8-1.6,2.4-2.7,4.6-2.7c3.1,0,4.1,1.9,4.1,4.3v7c0.8,0.1,1.6,0.2,2.2,0.4v2.2H273.4z"/>
		</g>
	</g>
	<g>
		<polygon class="st0" points="0,0 9.4,0 0,14.2 9.4,29.8 0,29.8 		"/>
		<polygon class="st0" points="17.3,0 34,0 34,6.1 17.3,6.1 17.3,11.4 34,11.4 34,17.4 17.3,17.4 17.3,29.8 7.2,14.2 		"/>
	</g>
</g>
</svg>
