<?xml version="1.0" encoding="utf-8"?>
<!-- Generator: Adobe Illustrator 18.0.0, SVG Export Plug-In . SVG Version: 6.00 Build 0)  -->
<!DOCTYPE svg PUBLIC "-//W3C//DTD SVG 1.1//EN" "http://www.w3.org/Graphics/SVG/1.1/DTD/svg11.dtd">
<svg version="1.1" id="Layer_1" xmlns="http://www.w3.org/2000/svg" xmlns:xlink="http://www.w3.org/1999/xlink" x="0px" y="0px"
	 viewBox="7.9 551.6 769.5 121.6" enable-background="new 7.9 551.6 769.5 121.6" xml:space="preserve">
<g>
	<g>
		<path fill="#F85200" d="M8.1,638.5v-85.1h17.3c7,0,12.2,2,16.2,5.7c3.7,3.9,5.7,9.4,5.7,16.4c0,4.2-0.7,7.9-2.2,11.2
			s-3.7,5.9-6.8,8.3c3.5,2,6.1,4.6,7.7,8.1c1.7,3.3,2.4,7.7,2.4,12.7c0,7.7-1.7,13.6-5,17.3c-3.5,3.7-8.7,5.5-16,5.5H8.1z M21,588.8
			h5.2c2.4,0,4.2-1.1,5.7-3.1c1.3-2,2-4.8,2-8.5c0-3.9-0.7-7-2-8.7c-1.3-1.7-3.5-2.6-6.6-2.6H21V588.8z M21,626h5.7
			c2.8,0,4.8-0.9,6.1-2.8c1.3-2,2-5,2-9.2c0-4.6-0.7-7.9-2.2-9.8c-1.5-2-3.9-3.1-7.4-3.1H21V626z"/>
		<path fill="#F85200" d="M57.9,553.4h13.3v65.8c0,2.4,0.7,4.4,2,5.9s2.8,2.2,5,2.2c2,0,3.7-0.7,4.8-2.2c1.1-1.5,1.7-3.5,1.7-5.9
			v-65.8h13.3v63.4c0,7.4-1.7,13.1-5.2,17.3c-3.5,3.9-8.5,6.1-14.9,6.1c-6.6,0-11.6-2-15.1-6.1c-3.5-3.9-5.2-9.8-5.2-17.5v-63.2
			H57.9z"/>
		<path fill="#F85200" d="M109.8,565.2v-11.8h11.8V565h-11.8V565.2z M109.8,638.5v-62.8h11.8v62.8H109.8z"/>
		<path fill="#F85200" d="M134,638.5v-85.1h12.9V626h20.3v12.2H134V638.5z"/>
		<path fill="#F85200" d="M174.7,638.5v-85.1h18.6c7.2,0,12.5,2,16,5.7c3.5,3.7,5.2,9.6,5.2,17.7v37.8c0,8.3-1.7,14.2-5,17.9
			s-8.5,5.7-15.7,5.7h-19V638.5z M187.6,625.8h6.6c2.4,0,3.9-0.7,5-2.2c1.1-1.5,1.7-3.7,1.7-6.8v-40.7c0-3.5-0.9-6.1-2.6-7.7
			c-1.7-1.5-4.4-2.4-7.9-2.4h-3.1v59.7H187.6z"/>
		<path fill="#F85200" d="M225.2,565.2v-11.8H237V565h-11.8V565.2z M225.2,638.5v-62.8H237v62.8H225.2z"/>
		<path fill="#F85200" d="M249.5,638.5v-85.1h11.8l16.6,50.7c0.2,0.9,0.7,2.2,1.1,3.9c0.4,1.5,0.9,3.3,1.3,5.2
			c-0.4-2.4-0.9-4.8-1.1-6.8c-0.2-2.2-0.4-3.7-0.4-4.6v-48.5H291v84.8h-12.2l-16-47c0-0.2-0.2-0.4-0.2-0.9c-1.1-3.3-2-5.9-2.4-8.3
			c0.4,3.1,0.9,5.5,1.1,7.4c0.2,2,0.4,3.5,0.4,4.4v44.4h-12.2V638.5z"/>
		<path fill="#F85200" d="M303.1,616.6v-43.5c0-6.8,1.7-12,5.5-15.7s8.7-5.7,15.1-5.7c6.1,0,10.9,1.7,14,5.5
			c3.3,3.7,4.8,9.2,4.8,16.2v7.9h-12.7v-9c0-2.8-0.7-5-1.7-6.6c-1.1-1.5-2.8-2.2-5-2.2c-2.2,0-3.9,0.7-5,2.2
			c-1.1,1.5-1.7,3.7-1.7,6.6v47.5c0,2.8,0.7,5.2,1.7,6.6c1.1,1.5,2.8,2.2,5,2.2c2.2,0,3.9-0.7,5-2.2s1.7-3.7,1.7-6.6v-13.3h-7.9
			v-10.7h20.6v42.9h-6.3l-2.6-5.9c-1.5,2.6-3.3,4.6-5.2,5.9c-2,1.3-4.6,2-7.4,2c-5.9,0-10.3-2-13.3-6.1
			C304.6,630.1,303.1,624.2,303.1,616.6z"/>
		<path fill="#F85200" d="M377.9,565.2v-11.8h11.8V565h-11.8V565.2z M377.9,638.5v-62.8h11.8v62.8H377.9z"/>
		<path fill="#F85200" d="M402.1,638.5v-85.1h11.8l16.6,50.7c0.2,0.9,0.7,2.2,1.1,3.9c0.4,1.5,0.9,3.3,1.3,5.2
			c-0.4-2.4-0.9-4.8-1.1-6.8c-0.2-2.2-0.4-3.7-0.4-4.6v-48.5h12.2v84.8h-12.2l-16-46.8c0-0.2-0.2-0.4-0.2-0.9
			c-1.1-3.3-2-5.9-2.4-8.3c0.4,3.1,0.9,5.5,1.1,7.4s0.4,3.5,0.4,4.4v44.4H402.1z"/>
		<path fill="#F85200" d="M453.3,616.8l12.5-2c0.2,4.4,1.1,7.4,2.4,9.6c1.3,2,3.5,3.1,6.1,3.1c2.4,0,4.4-0.7,5.9-2.2
			s2.2-3.5,2.2-5.9c0-4.4-3.5-10.1-10.5-17.1c-0.7-0.7-0.9-0.9-1.3-1.3c-7-7-11.4-12.2-13.3-16c-2-3.7-2.8-7.7-2.8-11.8
			c0-5.9,2-10.9,5.9-15.1c3.9-4.2,8.7-6.1,14.4-6.1c5.5,0,10.1,2,13.6,5.7c3.5,3.7,5.5,9,6.1,15.3l-12.9,1.7c-0.2-3.7-0.9-6.6-2-8.1
			c-1.1-1.7-2.8-2.4-5-2.4c-2.2,0-3.7,0.7-5,2.2c-1.3,1.5-2,3.3-2,5.7c0,5,4.2,11.4,12.2,19.2c0.2,0.2,0.7,0.7,0.7,0.7
			c6.1,5.9,10.1,10.7,11.8,14.4c2,3.7,2.8,7.9,2.8,12.5c0,6.1-2,11.4-5.7,15.3c-3.9,3.9-8.7,5.9-14.7,5.9c-6.6,0-11.6-2-15.5-6.1
			C455.5,629.9,453.5,624.2,453.3,616.8z"/>
		<path fill="#F85200" d="M504.2,638.5v-85.1h19.2c7.2,0,12.5,2,15.5,5.9c3.3,3.9,4.8,10.1,4.8,18.8c0,8.1-1.5,14.4-4.6,19
			c-3.1,4.6-7.4,7-12.9,7h-9v34.5h-13.1V638.5z M517.4,591.7h5.2c3.1,0,5.2-0.9,6.3-2.8c1.1-2,1.7-5.5,1.7-10.7
			c0-4.8-0.7-8.1-1.7-9.8c-1.1-1.7-3.5-2.6-6.8-2.6h-4.6v26H517.4z"/>
		<path fill="#F85200" d="M553,638.5v-85.1h34.1v12.2h-21v22.3h15.1v12.2h-15.1v25.4h21v12.7H553V638.5z"/>
		<path fill="#F85200" d="M595.6,616.6v-43.5c0-6.8,1.7-12,5.5-15.7c3.7-3.7,8.7-5.7,15.1-5.7c6.1,0,10.9,2,14.4,5.9
			c3.5,3.9,5.2,9.2,5.2,16v8.1h-13.3v-9.4c0-2.8-0.7-5-1.7-6.6c-1.1-1.5-2.8-2.2-5-2.2s-3.9,0.7-5,2.2c-1.1,1.5-1.7,3.7-1.7,6.6
			v47.5c0,2.8,0.7,5.2,1.7,6.6c1.1,1.5,2.8,2.2,5,2.2s3.9-0.7,5-2.2s1.7-3.7,1.7-6.6v-11.6h13.3v9c0,7.4-1.7,13.1-5.2,17.3
			c-3.5,3.9-8.5,6.1-14.9,6.1c-6.6,0-11.6-2-15.1-5.9C597.4,630.1,595.6,624.2,595.6,616.6z"/>
		<path fill="#F85200" d="M639.8,565.6v-12.2H680v12.2h-13.6v72.6h-13.1v-72.6H639.8z"/>
		<path fill="#F85200" d="M684.4,573.1c0-6.8,1.7-12,5.5-15.7c3.7-3.7,8.7-5.7,15.1-5.7c6.1,0,10.9,2,14.4,5.9
			c3.5,3.9,5.2,9.2,5.2,16V617c0,7.4-1.7,13.1-5.2,17.3c-3.5,3.9-8.5,6.1-14.9,6.1c-6.6,0-11.6-2-14.9-6.1c-3.5-3.9-5-9.8-5-17.5
			v-43.7H684.4z M711.3,619.7v-47.5c0-2.8-0.7-5-1.7-6.6c-1.1-1.5-2.8-2.2-5-2.2c-2.2,0-3.9,0.7-5,2.2c-1.1,1.5-1.7,3.7-1.7,6.6
			v47.5c0,2.8,0.7,5.2,1.7,6.6c1.1,1.5,2.8,2.2,5,2.2c2.2,0,3.9-0.7,5-2.2S711.3,622.5,711.3,619.7z"/>
		<path fill="#F85200" d="M749.6,602.6v35.6h-13.1v-84.8h19.2c7.2,0,12.5,2,15.5,5.9c3.1,3.9,4.8,10.1,4.8,18.8
			c0,5.2-0.7,9.6-2,12.9c-1.3,3.3-3.5,5.9-6.3,8.1l9.6,39.4h-13.6l-7.9-35.9H749.6z M749.6,565.6v24.7h5.2c3.1,0,5-0.9,6.3-2.6
			c1.1-1.7,1.7-5.2,1.7-10.1c0-4.4-0.7-7.7-1.7-9.2c-1.3-1.7-3.5-2.6-6.6-2.6h-5V565.6z"/>
	</g>
	<g>
		<path fill="#F85200" d="M7.9,672.6v-29.3h4.6v12.5c0.2-0.4,0.2-0.9,0.4-1.1c0-0.2,0.2-0.4,0.2-0.7l4.4-10.7h4.6l-5,10.1l5.7,19.2
			h-4.8l-3.7-14.7l-1.7,3.3v11.4H7.9z"/>
		<path fill="#F85200" d="M24.7,647.2v-3.9h4.2v3.9H24.7z M24.7,672.6v-21.6h4.2v21.6H24.7z"/>
		<path fill="#F85200" d="M33,672.6v-29.3h4.4v25.1h7v4.2H33z"/>
		<path fill="#F85200" d="M47,672.6v-29.3h4.4v25.1h7v4.2H47z"/>
		<path fill="#F85200" d="M66.9,647.4v-4.2h14v4.2h-4.8v25.1h-4.6v-25.1H66.9z"/>
		<path fill="#F85200" d="M83.3,647.2v-3.9h4.2v3.9H83.3z M83.3,672.6v-21.6h4.2v21.6H83.3z"/>
		<path fill="#F85200" d="M91.6,672.6v-29.3h6.1l2.8,16.2c0.2,0.7,0.2,1.3,0.2,2.2c0,0.7,0,1.5,0,2.4c0-0.7,0-1.3,0.2-2.2
			c0-0.7,0.2-1.5,0.2-2.2l2.8-16.2h6.1v29.1h-4.2V654c0-0.4,0-1.3,0-2.2c0-0.9,0.2-2,0.2-3.1c0,0.4-0.2,0.9-0.2,1.5
			c-0.2,1.3-0.4,2.2-0.4,2.6l-3.5,19.7h-2.2l-3.7-19.5c-0.2-0.9-0.2-1.7-0.4-2.6c-0.2-0.9-0.2-1.5-0.2-1.5c0,1.1,0.2,2,0.2,2.8
			c0,0.9,0,1.7,0,2.4v18.4H91.6z"/>
		<path fill="#F85200" d="M115,672.6v-29.3h11.8v4.2h-7.2v7.7h5v4.4h-5.2v8.7h7.4v4.4H115z"/>
		<path fill="#F85200" d="M130.3,672.6V668h4.4v4.6H130.3z"/>
		<path fill="#F85200" d="M147.6,672.6v-29.3h6.1l2.8,16.2c0.2,0.7,0.2,1.3,0.2,2.2c0,0.7,0,1.5,0,2.4c0-0.7,0-1.3,0.2-2.2
			c0-0.7,0.2-1.5,0.2-2.2l2.8-16.2h6.1v29.1H162V654c0-0.4,0-1.3,0-2.2c0-0.9,0.2-2,0.2-3.1c0,0.4-0.2,0.9-0.2,1.5
			c-0.2,1.3-0.4,2.2-0.4,2.6l-3.5,19.7h-2.2l-3.5-19.5c-0.2-0.9-0.2-1.7-0.4-2.6s-0.2-1.5-0.2-1.5c0,1.1,0.2,2,0.2,2.8
			c0,0.9,0,1.7,0,2.4v18.4H147.6z"/>
		<path fill="#F85200" d="M168.8,672.6l4.8-29.3h5.9l4.8,29.3h-4.6l-0.9-6.3h-4.6l-1.1,6.3H168.8z M174.9,662.1h3.5l-1.5-12.2h-0.2
			L174.9,662.1z"/>
		<path fill="#F85200" d="M187,672.6v-29.3h4.6v12.5c0.2-0.4,0.2-0.9,0.4-1.1c0-0.2,0.2-0.4,0.2-0.7l4.6-10.5h4.4l-5,10.1l5.7,19.2
			H197l-3.7-14.7l-1.7,3.3v11.2H187z"/>
		<path fill="#F85200" d="M204,672.6v-29.3h11.8v4.2h-7.2v7.7h5.2v4.4h-5.2v8.7h7.2v4.4H204z"/>
		<path fill="#F85200" d="M227.8,643.3h4.6v12h4.6v-12h4.6v29.3H237v-13.1h-4.6v13.1h-4.6V643.3z"/>
		<path fill="#F85200" d="M245.6,647.2v-3.9h4.2v3.9H245.6z M245.6,672.6v-21.6h4.2v21.6H245.6z"/>
		<path fill="#F85200" d="M252.6,665.1l4.4-0.7c0,1.5,0.4,2.6,0.9,3.3c0.4,0.7,1.1,1.1,2.2,1.1c0.9,0,1.5-0.2,2-0.9
			c0.4-0.4,0.9-1.3,0.9-2c0-1.5-1.3-3.5-3.7-5.9c-0.2-0.2-0.4-0.4-0.4-0.4c-2.4-2.4-3.9-4.2-4.6-5.5c-0.7-1.3-1.1-2.6-1.1-4.2
			c0-2,0.7-3.7,2-5.2c1.3-1.3,3.1-2.2,5-2.2c2,0,3.5,0.7,4.6,2c1.3,1.3,2,3.1,2.2,5.2l-4.4,0.7c0-1.3-0.2-2.2-0.7-2.8
			c-0.4-0.7-0.9-0.9-1.7-0.9c-0.7,0-1.3,0.2-1.7,0.7c-0.4,0.4-0.7,1.1-0.7,2c0,1.7,1.3,3.9,4.2,6.8l0.2,0.2c2.2,2,3.5,3.7,4.2,5
			c0.7,1.3,0.9,2.6,0.9,4.4c0,2.2-0.7,3.9-2,5.2c-1.3,1.3-3.1,2-5,2c-2.2,0-3.9-0.7-5.2-2.2C253.4,669.7,252.6,667.8,252.6,665.1z"
			/>
		<path fill="#F85200" d="M267.6,647.4v-4.2h14v4.2h-4.8v25.1h-4.6v-25.1H267.6z"/>
		<path fill="#F85200" d="M283.2,650c0-2.4,0.7-4.2,2-5.5c1.3-1.3,3.1-2,5.2-2c2.2,0,3.7,0.7,5,2c1.3,1.3,1.7,3.3,1.7,5.5v15.1
			c0,2.6-0.7,4.6-1.7,5.9c-1.3,1.3-2.8,2.2-5.2,2.2c-2.2,0-3.9-0.7-5.2-2.2c-1.1-1.3-1.7-3.5-1.7-6.1V650z M292.4,666v-16.4
			c0-1.1-0.2-1.7-0.7-2.2s-0.9-0.7-1.7-0.7c-0.9,0-1.3,0.2-1.7,0.7s-0.7,1.3-0.7,2.2V666c0,1.1,0.2,1.7,0.7,2.2
			c0.4,0.4,0.9,0.9,1.7,0.9c0.9,0,1.3-0.2,1.7-0.9C292.1,668,292.4,667.1,292.4,666z"/>
		<path fill="#F85200" d="M305.7,660.3v12.2h-4.6v-29.3h6.6c2.4,0,4.4,0.7,5.5,2s1.7,3.5,1.7,6.6c0,1.7-0.2,3.3-0.7,4.4
			s-1.1,2-2.2,2.8l3.3,13.6h-4.8l-2.8-12.2H305.7z M305.7,647.4v8.5h1.7c1.1,0,1.7-0.2,2.2-0.9c0.4-0.7,0.7-1.7,0.7-3.5
			c0-1.5-0.2-2.6-0.7-3.3s-1.1-0.9-2.4-0.9H305.7z"/>
		<path fill="#F85200" d="M315.5,643.3h4.6l2.8,11.8h0.2l2.8-11.8h4.6l-5.2,17.1v12.2h-4.6V661L315.5,643.3z"/>
		<path fill="#F85200" d="M330,672.6V668h4.4v4.6H330z"/>
	</g>
</g>
</svg>
