<?xml version="1.0" encoding="UTF-8" standalone="no"?>
<svg width="550px" height="400px" viewBox="0 0 550 400" version="1.1" xmlns="http://www.w3.org/2000/svg" xmlns:xlink="http://www.w3.org/1999/xlink" xmlns:sketch="http://www.bohemiancoding.com/sketch/ns">
    <!-- Generator: Sketch 3.2.2 (9983) - http://www.bohemiancoding.com/sketch -->
    <title>delmonicos</title>
    <desc>Created with Sketch.</desc>
    <defs></defs>
    <g id="Page-1" stroke="none" stroke-width="1" fill="none" fill-rule="evenodd" sketch:type="MSPage">
        <g id="delmonicos" sketch:type="MSArtboardGroup">
      <clipPath id="usa-mask">
        <rect fill="#D8D8D8" sketch:type="MSShapeGroup" x="0" y="0" width="550" height="400" rx="20"></rect>
      </clipPath>
      <image
        xlink:href="img/usa.png"
        style="clip-path:url(#usa-mask);"
        x="0"
        y="0"
        width="550"
        height="400"
        id="usa" />
            <g id="dots" sketch:type="MSLayerGroup" transform="translate(67.000000, 116.000000)" fill="#F85200">
                <circle id="dot-0" sketch:type="MSShapeGroup" cx="235.5" cy="7.5" r="7.5"></circle>
                <circle id="dot-1" sketch:type="MSShapeGroup" cx="309.5" cy="30.5" r="7.5"></circle>
                <circle id="dot-2" sketch:type="MSShapeGroup" cx="328.5" cy="46.5" r="7.5"></circle>
                <circle id="dot-3" sketch:type="MSShapeGroup" cx="369.5" cy="55.5" r="7.5"></circle>
                <circle id="dot-4" sketch:type="MSShapeGroup" cx="308.5" cy="126.5" r="7.5"></circle>
                <circle id="dot-6" sketch:type="MSShapeGroup" cx="334.5" cy="190.5" r="7.5"></circle>
                <circle id="dot-7" sketch:type="MSShapeGroup" cx="7.5" cy="89.5" r="7.5"></circle>
                <circle id="dot-5" sketch:type="MSShapeGroup" cx="331.5" cy="106.5" r="7.5"></circle>
            </g>
            <g id="browser" sketch:type="MSLayerGroup" transform="translate(65.000000, 20.000000)">
                <rect id="view" fill="#F1F1F1" sketch:type="MSShapeGroup" x="0" y="70" width="420" height="290"></rect>
                <path d="M420,70 L420,19.9970728 C420,8.95501201 411.04904,0 400.007471,0 L19.9925295,0 C8.95440102,0 0,8.95299444 0,19.9970728 L0,70 L420,70 Z" fill="#D8D8D8" sketch:type="MSShapeGroup"></path>
                <rect id="input" fill="#FFFFFF" sketch:type="MSShapeGroup" x="20" y="19" width="380" height="40"></rect>
      <clipPath id="mask">
        <rect id="view" fill="#F1F1F1" sketch:type="MSShapeGroup" x="0" y="70" width="420" height="290"></rect>
      </clipPath>
      <image
        xlink:href="img/oldnyc.png"
        style="clip-path:url(#mask);"
        x="54"
        y="-27"
        width="434"
        height="414"
        id="oldnyc" />
            </g>
                <image id="photo" xlink:href="img/delmonicos.jpg" x="12" y="166" width="172" height="116" />
            <g id="news" sketch:type="MSLayerGroup" transform="translate(360.000000, 142.000000)">
                <rect id="Rectangle-7" stroke="#000000" fill="#FFFFFF" sketch:type="MSShapeGroup" x="0" y="0" width="176" height="164"></rect>
                <rect id="Rectangle-7" fill="#DFDFDF" sketch:type="MSShapeGroup" x="10" y="10" width="30" height="144"></rect>
                <rect id="Rectangle-7" fill="#DFDFDF" sketch:type="MSShapeGroup" x="52" y="50" width="30" height="104"></rect>
                <rect id="Rectangle-7" fill="#DFDFDF" sketch:type="MSShapeGroup" x="94" y="50" width="30" height="104"></rect>
                <rect id="Rectangle-7" fill="#DFDFDF" sketch:type="MSShapeGroup" x="136" y="10" width="30" height="144"></rect>
                <path d="M62.17,12.57 C62.17,13.1100027 62.0550012,13.6599972 61.825,14.22 C61.5949989,14.7800028 61.2600022,15.2849978 60.82,15.735 C60.3799978,16.1850022 59.8450032,16.5549986 59.215,16.845 C58.5849969,17.1350015 57.8800039,17.28 57.1,17.28 C56.0399947,17.28 55.1600035,17.0700021 54.46,16.65 C53.7599965,16.2299979 53.2600015,15.820002 52.96,15.42 C52.6799986,15.0599982 52.4750007,14.6900019 52.345,14.31 C52.2149994,13.9299981 52.1050005,13.5900015 52.015,13.29 C51.9249996,12.9899985 51.8200006,12.745001 51.7,12.555 C51.5799994,12.364999 51.3800014,12.27 51.1,12.27 C50.8199986,12.27 50.580001,12.364999 50.38,12.555 C50.179999,12.745001 50.0200006,12.9749987 49.9,13.245 C49.7799994,13.5150014 49.6950003,13.7999985 49.645,14.1 C49.5949998,14.4000015 49.57,14.649999 49.57,14.85 C49.57,16.0100058 50.0149956,16.9349966 50.905,17.625 C51.7950045,18.3150034 52.9499929,18.66 54.37,18.66 C54.8100022,18.66 55.1649987,18.6400002 55.435,18.6 C55.7050014,18.5599998 55.9349991,18.5100003 56.125,18.45 C56.315001,18.3899997 56.4799993,18.3200004 56.62,18.24 C56.7600007,18.1599996 56.9199991,18.0800004 57.1,18 C57.2200006,18.3000015 57.1950009,18.5399991 57.025,18.72 C56.8549992,18.9000009 56.6150016,19.0449995 56.305,19.155 C55.9949985,19.2650005 55.645002,19.3349999 55.255,19.365 C54.8649981,19.3950002 54.5200015,19.41 54.22,19.41 C53.3399956,19.41 52.5450036,19.2700014 51.835,18.99 C51.1249965,18.7099986 50.5100026,18.3600021 49.99,17.94 C49.4699974,17.5199979 49.0700014,17.0550026 48.79,16.545 C48.5099986,16.0349975 48.37,15.5400024 48.37,15.06 C48.37,14.3999967 48.5149986,13.7600031 48.805,13.14 C49.0950015,12.5199969 49.4949975,11.9600025 50.005,11.46 C50.5150026,10.9599975 51.1299964,10.5600015 51.85,10.26 C52.5700036,9.9599985 53.3499958,9.81 54.19,9.81 C55.1700049,9.81 55.9349973,10.0649975 56.485,10.575 C57.0350028,11.0850025 57.4849983,11.6499969 57.835,12.27 C58.1850018,12.8900031 58.4949987,13.4549975 58.765,13.965 C59.0350014,14.4750025 59.3899978,14.73 59.83,14.73 C60.4100029,14.73 60.7849992,14.5100022 60.955,14.07 C61.1250009,13.6299978 61.21,13.1250029 61.21,12.555 C61.21,11.9849972 61.1750004,11.4350027 61.105,10.905 C61.0349997,10.3749974 61.0499995,10.0200009 61.15,9.84 C61.750003,10.1200014 62.0699998,10.5249974 62.11,11.055 C62.1500002,11.5850026 62.17,12.0899976 62.17,12.57 L62.17,12.57 Z M79.87,29.97 L80.38,30.3 L75.28,36.69 C74.9599984,36.5699994 74.6450016,36.3600015 74.335,36.06 C74.0249985,35.7599985 73.7150016,35.4350017 73.405,35.085 C73.0949985,34.7349983 72.7900015,34.3850018 72.49,34.035 C72.1899985,33.6849982 71.8800016,33.3900012 71.56,33.15 C71.3999992,33.2500005 71.1750015,33.4549985 70.885,33.765 C70.5949986,34.0750016 70.3050015,34.3999983 70.015,34.74 C69.7249986,35.0800017 69.4650012,35.3949985 69.235,35.685 C69.0049989,35.9750015 68.8600003,36.1499997 68.8,36.21 C68.6999995,36.1899999 68.5950006,36.1700001 68.485,36.15 C68.3749995,36.1299999 68.2700005,36.1100001 68.17,36.09 L68.17,35.76 C68.4300013,35.4599985 68.7249984,35.1300018 69.055,34.77 C69.3850017,34.4099982 69.6999985,34.0400019 70,33.66 C70.3000015,33.2799981 70.5599989,32.9050018 70.78,32.535 C71.0000011,32.1649982 71.1199999,31.8300015 71.14,31.53 C71.2200004,30.5899953 71.26,29.7750034 71.26,29.085 L71.26,26.7 C71.26,26.4399987 71.265,26.1800013 71.275,25.92 C71.2850001,25.6599987 71.2400005,25.4250011 71.14,25.215 C71.0399995,25.004999 70.8600013,24.8350006 70.6,24.705 C70.3399987,24.5749993 69.9400027,24.51 69.4,24.51 C68.6799964,24.51 68.1950013,24.7049981 67.945,25.095 C67.6949988,25.4850019 67.5550002,26.0149967 67.525,26.685 C67.4949999,27.3550033 67.5049998,28.1249956 67.555,28.995 C67.6050003,29.8650043 67.5700006,30.7799952 67.45,31.74 C67.3499995,32.6200044 67.0800022,33.3649969 66.64,33.975 C66.1999978,34.585003 65.6400034,35.084998 64.96,35.475 C64.2799966,35.8650019 63.5100043,36.1449992 62.65,36.315 C61.7899957,36.4850008 60.8900047,36.57 59.95,36.57 C59.2299964,36.57 58.5950028,36.5000007 58.045,36.36 C57.4949973,36.2199993 56.9600026,36.0700008 56.44,35.91 C55.9199974,35.7499992 55.3750029,35.6000007 54.805,35.46 C54.2349972,35.3199993 53.5700038,35.25 52.81,35.25 C51.5299936,35.25 50.4700042,35.4949976 49.63,35.985 C48.7899958,36.4750024 48.37,37.1599956 48.37,38.04 C48.37,38.440002 48.5049987,38.8649978 48.775,39.315 C49.0450014,39.7650023 49.3699981,40.1749982 49.75,40.545 C50.1300019,40.9150018 50.519998,41.2199988 50.92,41.46 C51.320002,41.7000012 51.6399988,41.82 51.88,41.82 C52.0600009,41.82 52.2049995,41.7450008 52.315,41.595 C52.4250006,41.4449993 52.6399984,41.2400013 52.96,40.98 C53.2800016,40.7199987 53.7649968,40.4150018 54.415,40.065 C55.0650033,39.7149983 56.0099938,39.340002 57.25,38.94 C58.2300049,38.6199984 59.124996,38.3750008 59.935,38.205 C60.7450041,38.0349992 61.6599949,37.95 62.68,37.95 C63.3800035,37.95 64.134996,37.9949996 64.945,38.085 C65.7550041,38.1750004 66.5099965,38.3399988 67.21,38.58 C67.9100035,38.8200012 68.4949977,39.1599978 68.965,39.6 C69.4350024,40.0400022 69.67,40.6199964 69.67,41.34 C69.67,42.2000043 69.3250035,42.8699976 68.635,43.35 C67.9449966,43.8300024 67.1200048,44.1899988 66.16,44.43 C65.1999952,44.6700012 64.1950053,44.8199997 63.145,44.88 C62.0949948,44.9400003 61.2100036,44.97 60.49,44.97 C58.8099916,44.97 57.5050047,44.8600011 56.575,44.64 C55.6449954,44.4199989 54.9150027,44.1800013 54.385,43.92 C53.8549974,43.6599987 53.4400015,43.4200011 53.14,43.2 C52.8399985,42.9799989 52.4700022,42.87 52.03,42.87 C51.9099994,42.87 51.8050005,42.9249995 51.715,43.035 C51.6249996,43.1450005 51.5200006,43.2849991 51.4,43.455 C51.2799994,43.6250008 51.1300009,43.814999 50.95,44.025 C50.7699991,44.2350011 50.5300015,44.4299991 50.23,44.61 L50.23,44.28 C50.23,44.2399998 50.2949994,44.1300009 50.425,43.95 C50.5550007,43.7699991 50.6949993,43.585001 50.845,43.395 C50.9950008,43.204999 51.1349994,43.0300008 51.265,42.87 C51.3950007,42.7099992 51.46,42.6200001 51.46,42.6 C51.46,42.4599993 51.2050026,42.2550014 50.695,41.985 C50.1849975,41.7149986 49.630003,41.3300025 49.03,40.83 C48.429997,40.3299975 47.8750026,39.7000038 47.365,38.94 C46.8549975,38.1799962 46.6,37.2300057 46.6,36.09 C46.6,35.4299967 46.7349987,34.795003 47.005,34.185 C47.2750014,33.5749969 47.6499976,33.0300024 48.13,32.55 C48.6100024,32.0699976 49.1949966,31.6850015 49.885,31.395 C50.5750035,31.1049986 51.3399958,30.96 52.18,30.96 C52.8400033,30.96 53.4299974,31.059999 53.95,31.26 C54.4700026,31.460001 54.9249981,31.6849988 55.315,31.935 C55.705002,32.1850012 56.0349987,32.409999 56.305,32.61 C56.5750014,32.810001 56.7899992,32.91 56.95,32.91 C57.5700031,32.91 58.0399984,32.7300018 58.36,32.37 C58.6800016,32.0099982 58.9099993,31.5950024 59.05,31.125 C59.1900007,30.6549976 59.265,30.2000022 59.275,29.76 C59.2850001,29.3199978 59.29,29.0100009 59.29,28.83 C59.29,28.429998 59.2050009,28.1950004 59.035,28.125 C58.8649992,28.0549996 58.5700021,28.02 58.15,28.02 C57.4899967,28.02 57.0000016,28.1049991 56.68,28.275 C56.3599984,28.4450008 56.1400006,28.6449989 56.02,28.875 C55.8999994,29.1050011 55.8499999,29.3449988 55.87,29.595 C55.8900001,29.8450013 55.9,30.0499992 55.9,30.21 L55.27,30.21 C54.8299978,29.9299986 54.5650005,29.6000019 54.475,29.22 C54.3849996,28.8399981 54.34,28.5800007 54.34,28.44 C54.34,27.7999968 54.4799986,27.2900019 54.76,26.91 C55.0400014,26.5299981 55.4149977,26.2200012 55.885,25.98 C56.3550024,25.7399988 56.8849971,25.5350009 57.475,25.365 C58.065003,25.1949992 58.6699969,24.9900012 59.29,24.75 L59.29,24.39 C59.0499988,24.2699994 58.8600007,24.1850003 58.72,24.135 C58.5799993,24.0849998 58.4550006,24.0550001 58.345,24.045 C58.2349995,24.035 58.1200006,24.03 58,24.03 L57.49,24.03 C56.4299947,24.03 55.5300037,24.1699986 54.79,24.45 C54.0499963,24.7300014 53.4750021,25.0899978 53.065,25.53 C52.654998,25.9700022 52.4150004,26.4649972 52.345,27.015 C52.2749997,27.5650027 52.3699987,28.1099973 52.63,28.65 C52.4899993,28.7100003 52.3700005,28.74 52.27,28.74 C52.0899991,28.74 51.8150019,28.540002 51.445,28.14 C51.0749982,27.739998 50.89,27.0700047 50.89,26.13 C50.89,25.1099949 51.1299976,24.2500035 51.61,23.55 C52.0900024,22.8499965 52.7249961,22.2850022 53.515,21.855 C54.305004,21.4249979 55.204995,21.115001 56.215,20.925 C57.2250051,20.734999 58.2499948,20.64 59.29,20.64 C59.29,20.0599971 59.3499994,19.5400023 59.47,19.08 C59.5900006,18.6199977 59.8049985,18.1750022 60.115,17.745 C60.4250016,17.3149979 60.8499973,16.8750023 61.39,16.425 C61.9300027,15.9749977 62.6199958,15.4800027 63.46,14.94 C63.7000012,14.7799992 63.9899983,14.6050009 64.33,14.415 C64.6700017,14.2249991 65.0099983,14.0250011 65.35,13.815 C65.6900017,13.604999 65.9949987,13.3950011 66.265,13.185 C66.5350014,12.974999 66.7199995,12.770001 66.82,12.57 C66.9400006,12.3099987 67,12.0400014 67,11.76 C67,11.4799986 66.9950001,11.2150013 66.985,10.965 C66.975,10.7149987 66.9949998,10.4800011 67.045,10.26 C67.0950003,10.0399989 67.2299989,9.8600007 67.45,9.72 C67.6300009,9.920001 67.7349999,10.1299989 67.765,10.35 C67.7950002,10.5700011 67.81,10.779999 67.81,10.98 C67.81,11.180001 67.8050001,11.3699991 67.795,11.55 C67.785,11.7300009 67.8199996,11.8999992 67.9,12.06 L72.07,9.72 C72.670003,10.2600027 73.1549982,10.6799985 73.525,10.98 C73.8950019,11.2800015 74.2349985,11.5449988 74.545,11.775 C74.8550016,12.0050012 75.1649985,12.2499987 75.475,12.51 C75.7850016,12.7700013 76.1699977,13.1399976 76.63,13.62 C76.8500011,13.4999994 76.9999996,13.3700007 77.08,13.23 C77.1600004,13.0899993 77.2499995,12.920001 77.35,12.72 C77.4500005,12.519999 77.5899991,12.2800014 77.77,12 C77.9500009,11.7199986 78.239998,11.3900019 78.64,11.01 C78.7400005,11.0500002 78.8199997,11.0899998 78.88,11.13 C78.9400003,11.1700002 79.0099996,11.1999999 79.09,11.22 C78.8499988,11.7600027 78.6000013,12.2549978 78.34,12.705 C78.0799987,13.1550023 77.8450011,13.6049978 77.635,14.055 C77.424999,14.5050023 77.2450008,14.9699976 77.095,15.45 C76.9449993,15.9300024 76.8600001,16.469997 76.84,17.07 C76.7999998,18.2500059 76.7650002,19.3199952 76.735,20.28 C76.7049999,21.2400048 76.6850001,22.1799954 76.675,23.1 C76.665,24.0200046 76.6500001,24.9599952 76.63,25.92 C76.6099999,26.8800048 76.6,27.9499941 76.6,29.13 C76.6800004,29.8700037 76.8049992,30.3849985 76.975,30.675 C77.1450009,30.9650014 77.4599977,31.2699984 77.92,31.59 C78.2600017,31.3299987 78.5849985,31.0100019 78.895,30.63 C79.2050016,30.2499981 79.3899997,30.0300003 79.45,29.97 L79.87,29.97 Z M71.14,19.17 C71.2000003,18.8099982 71.2499998,18.5800005 71.29,18.48 C71.3300002,18.3799995 71.35,18.2750006 71.35,18.165 C71.35,18.0549994 71.3350002,17.8650014 71.305,17.595 C71.2749999,17.3249987 71.2200004,16.8300036 71.14,16.11 C71.1199999,15.9699993 71.0050011,15.7550015 70.795,15.465 C70.584999,15.1749985 70.3250016,14.8850015 70.015,14.595 C69.7049985,14.3049986 69.3700018,14.0300013 69.01,13.77 C68.6499982,13.5099987 68.3200015,13.3400004 68.02,13.26 L67.72,19.8 C67.920001,19.8800004 68.0849994,19.9699995 68.215,20.07 C68.3450007,20.1700005 68.6299978,20.22 69.07,20.22 C69.2100007,20.22 69.3949989,20.2050001 69.625,20.175 C69.8550012,20.1449999 70.074999,20.0950003 70.285,20.025 C70.4950011,19.9549996 70.6799992,19.8500007 70.84,19.71 C71.0000008,19.5699993 71.0999998,19.3900011 71.14,19.17 L71.14,19.17 Z M67.72,24.03 L70.99,24.03 C71.0100001,23.8099989 71.02,23.6100009 71.02,23.43 C71.02,23.2499991 71.02,23.0450012 71.02,22.815 C71.02,22.5849989 71.0150001,22.3050017 71.005,21.975 C70.995,21.6449984 70.99,21.2300025 70.99,20.73 C70.4899975,20.9900013 69.9750027,21.1100001 69.445,21.09 C68.9149974,21.0699999 68.3400031,20.9900007 67.72,20.85 C67.6599997,21.5900037 67.6449999,22.2099975 67.675,22.71 C67.7050002,23.2100025 67.72,23.6499981 67.72,24.03 L67.72,24.03 Z M66.82,14.34 C66.4599982,14.6200014 66.1400014,14.9549981 65.86,15.345 C65.5799986,15.735002 65.4300001,16.0699986 65.41,16.35 C65.3299996,17.6300064 65.29,18.7949948 65.29,19.845 C65.29,20.8950053 65.2999999,21.924995 65.32,22.935 C65.3400001,23.9450051 65.355,24.9749948 65.365,26.025 C65.3750001,27.0750053 65.3500003,28.2299937 65.29,29.49 C65.2699999,30.090003 65.0300023,30.6249977 64.57,31.095 C64.1099977,31.5650024 63.5200036,31.9749982 62.8,32.325 C62.0799964,32.6750017 61.2550047,32.9699988 60.325,33.21 C59.3949954,33.4500012 58.4400049,33.6299994 57.46,33.75 C57.7200013,34.0900017 57.949999,34.364999 58.15,34.575 C58.350001,34.785001 58.5749988,34.9549994 58.825,35.085 C59.0750013,35.2150007 59.3899981,35.3049998 59.77,35.355 C60.1500019,35.4050003 60.6499969,35.43 61.27,35.43 C62.3100052,35.43 63.1699966,35.230002 63.85,34.83 C64.5300034,34.429998 65.069998,33.9150032 65.47,33.285 C65.870002,32.6549969 66.1599991,31.9500039 66.34,31.17 C66.5200009,30.3899961 66.6299998,29.6200038 66.67,28.86 C66.7300003,27.4399929 66.7699999,26.1500058 66.79,24.99 C66.8100001,23.8299942 66.82,22.7000055 66.82,21.6 C66.82,20.4999945 66.8150001,19.3700058 66.805,18.21 C66.795,17.0499942 66.7999999,15.7600071 66.82,14.34 L66.82,14.34 Z M68.65,41.13 C68.65,40.8099984 68.5400011,40.5150013 68.32,40.245 C68.0999989,39.9749987 67.8150018,39.7450009 67.465,39.555 C67.1149983,39.3649991 66.7300021,39.2150005 66.31,39.105 C65.8899979,38.9949995 65.4900019,38.94 65.11,38.94 L61.27,38.94 C60.6499969,38.94 59.9250042,39.0599988 59.095,39.3 C58.2649959,39.5400012 57.4450041,39.8299983 56.635,40.17 C55.824996,40.5100017 55.0750035,40.8749981 54.385,41.265 C53.6949966,41.6550019 53.1800017,41.9899986 52.84,42.27 C53.2600021,42.3700005 53.6649981,42.5099991 54.055,42.69 C54.445002,42.8700009 54.8949975,43.0449992 55.405,43.215 C55.9150026,43.3850008 56.5199965,43.5349993 57.22,43.665 C57.9200035,43.7950006 58.7799949,43.86 59.8,43.86 C60.9600058,43.86 62.0749947,43.8250003 63.145,43.755 C64.2150054,43.6849997 65.1599959,43.555001 65.98,43.365 C66.8000041,43.174999 67.4499976,42.9000018 67.93,42.54 C68.4100024,42.1799982 68.65,41.7100029 68.65,41.13 L68.65,41.13 Z M92.74,30.42 L86.95,36.63 C86.8299994,36.5699997 86.7000007,36.4900005 86.56,36.39 C86.4199993,36.2899995 86.2100014,36.1250012 85.93,35.895 C85.6499986,35.6649989 85.2550026,35.350002 84.745,34.95 C84.2349975,34.549998 83.5400044,34.0200033 82.66,33.36 C82.66,33.36 82.5300013,33.4999986 82.27,33.78 C82.0099987,34.0600014 81.7250016,34.3249987 81.415,34.575 C81.1049985,34.8250012 80.8150014,34.9949996 80.545,35.085 C80.2749987,35.1750004 80.14,35.0400018 80.14,34.68 C80.14,34.6199997 80.2349991,34.490001 80.425,34.29 C80.615001,34.089999 80.8249989,33.8650012 81.055,33.615 C81.2850012,33.3649987 81.499999,33.1200012 81.7,32.88 C81.900001,32.6399988 82.0199998,32.4500007 82.06,32.31 C82.1000002,32.1299991 82.125,31.8250022 82.135,31.395 C82.1450001,30.9649979 82.1450001,30.5350022 82.135,30.105 C82.125,29.6749979 82.1100001,29.3050016 82.09,28.995 C82.0699999,28.6849985 82.06,28.5699996 82.06,28.65 L82.06,21.45 C82.1600005,21.3299994 82.2499996,21.2600001 82.33,21.24 C82.4100004,21.2199999 82.554999,21.1900002 82.765,21.15 C82.9750011,21.1099998 83.279998,21.0150007 83.68,20.865 C84.080002,20.7149993 84.6499963,20.440002 85.39,20.04 C86.0500033,19.7599986 86.7999958,19.5600006 87.64,19.44 C88.4800042,19.3199994 89.2649964,19.3699989 89.995,19.59 C90.7250037,19.8100011 91.3399975,20.2449968 91.84,20.895 C92.3400025,21.5450033 92.59,22.4999937 92.59,23.76 C92.59,23.960001 92.4350016,24.2199984 92.125,24.54 C91.8149985,24.8600016 91.4300023,25.2099981 90.97,25.59 C90.5099977,25.9700019 90.0050028,26.354998 89.455,26.745 C88.9049973,27.135002 88.4000023,27.4999983 87.94,27.84 C87.4799977,28.1800017 87.0900016,28.4699988 86.77,28.71 C86.4499984,28.9500012 86.29,29.1099996 86.29,29.19 C86.29,29.5500018 86.3649993,29.9499978 86.515,30.39 C86.6650008,30.8300022 86.8599988,31.2399981 87.1,31.62 C87.3400012,32.0000019 87.6099985,32.3199987 87.91,32.58 C88.2100015,32.8400013 88.4999986,32.97 88.78,32.97 C88.9000006,32.97 89.1149985,32.8150016 89.425,32.505 C89.7350016,32.1949984 90.0599983,31.8600018 90.4,31.5 C90.7400017,31.1399982 91.0649985,30.8050016 91.375,30.495 C91.6850016,30.1849985 91.9099993,30.03 92.05,30.03 C92.2300009,30.03 92.3699995,30.0849995 92.47,30.195 C92.5700005,30.3050006 92.6599996,30.3799998 92.74,30.42 L92.74,30.42 Z M89.29,25.5 C88.7099971,24.5799954 88.2100021,23.8000032 87.79,23.16 C87.3699979,22.5199968 87.0000016,22.0700013 86.68,21.81 C86.68,22.9900059 86.6450004,23.9249965 86.575,24.615 C86.5049997,25.3050035 86.47,25.7899986 86.47,26.07 L86.47,26.745 C86.47,26.8950008 86.4849999,27.0099996 86.515,27.09 C86.5450002,27.1700004 86.5849998,27.2299998 86.635,27.27 C86.6850003,27.3100002 86.7499996,27.3799995 86.83,27.48 C86.9900008,27.3199992 87.2099986,27.1300011 87.49,26.91 C87.7700014,26.6899989 88.0399987,26.475001 88.3,26.265 C88.5600013,26.054999 88.789999,25.8750008 88.99,25.725 C89.190001,25.5749993 89.29,25.5 89.29,25.5 L89.29,25.5 Z M115.24,21.45 C115.24,21.6300009 115.120001,21.814999 114.88,22.005 C114.639999,22.195001 114.365002,22.4299986 114.055,22.71 C113.744998,22.9900014 113.450001,23.329998 113.17,23.73 C112.889999,24.130002 112.73,24.629997 112.69,25.23 C112.69,26.4500061 112.610001,27.5399952 112.45,28.5 C112.289999,29.4600048 112.020002,30.3699957 111.64,31.23 C111.259998,32.0900043 110.755003,32.9349958 110.125,33.765 C109.494997,34.5950042 108.710005,35.4999951 107.77,36.48 C107.449998,36.3599994 107.175001,36.1750013 106.945,35.925 C106.714999,35.6749988 106.450002,35.3650018 106.15,34.995 C105.849999,34.6249981 105.470002,34.2000024 105.01,33.72 C104.549998,33.2399976 103.950004,32.7100029 103.21,32.13 C102.909999,32.2900008 102.585002,32.5799979 102.235,33 C101.884998,33.4200021 101.545002,33.8549977 101.215,34.305 C100.884998,34.7550023 100.570002,35.1499983 100.27,35.49 C99.9699985,35.8300017 99.7000012,36 99.46,36 C99.3399994,36 99.1550013,35.9100009 98.905,35.73 C98.6549988,35.5499991 98.3550018,35.3150014 98.005,35.025 C97.6549983,34.7349986 97.2750021,34.4050018 96.865,34.035 C96.454998,33.6649982 96.0300022,33.2900019 95.59,32.91 C95.3299987,33.1900014 95.0600014,33.4749986 94.78,33.765 C94.4999986,34.0550014 94.2700009,34.3299987 94.09,34.59 L93.58,34.59 C93.58,34.5099996 93.5500003,34.4749999 93.49,34.485 C93.4299997,34.4950001 93.4,34.4500005 93.4,34.35 C93.4,34.2699996 93.504999,34.1350009 93.715,33.945 C93.9250011,33.7549991 94.1549988,33.4850018 94.405,33.135 C94.6550013,32.7849983 94.8999988,32.3500026 95.14,31.83 C95.3800012,31.3099974 95.5299997,30.6900036 95.59,29.97 C95.6900005,29.0299953 95.7300001,28.2250034 95.71,27.555 C95.6899999,26.8849966 95.6899999,26.0800047 95.71,25.14 C95.7300001,24.8199984 95.7150003,24.5000016 95.665,24.18 C95.6149998,23.8599984 95.5250007,23.5800012 95.395,23.34 C95.2649994,23.0999988 95.0950011,22.9200006 94.885,22.8 C94.674999,22.6799994 94.4100016,22.6699995 94.09,22.77 L93.58,22.77 C93.58,22.6899996 93.5500003,22.6400001 93.49,22.62 C93.4299997,22.5999999 93.4,22.5500004 93.4,22.47 C93.4,22.4499999 93.499999,22.2950015 93.7,22.005 C93.900001,21.7149985 94.1599984,21.3600021 94.48,20.94 C94.8000016,20.5199979 95.1799978,20.0700024 95.62,19.59 C96.0600022,19.1099976 96.5199976,18.670002 97,18.27 C98.3200066,19.1900046 99.2149977,20.0749957 99.685,20.925 C100.155002,21.7750043 100.41,22.6449956 100.45,23.535 C100.49,24.4250045 100.415001,25.3549952 100.225,26.325 C100.034999,27.2950048 99.94,28.3499943 99.94,29.49 C99.94,29.9900025 99.9599998,30.3649987 100,30.615 C100.04,30.8650012 100.114999,31.0749991 100.225,31.245 C100.335001,31.4150008 100.489999,31.5799992 100.69,31.74 C100.890001,31.9000008 101.139999,32.1399984 101.44,32.46 C101.780002,32.3199993 102.079999,32.0900016 102.34,31.77 C102.600001,31.4499984 102.814999,30.985003 102.985,30.375 C103.155001,29.7649969 103.28,28.9950046 103.36,28.065 C103.44,27.1349953 103.48,26.0000067 103.48,24.66 C103.48,23.9799966 103.435,23.4450019 103.345,23.055 C103.255,22.664998 103.135001,22.3450012 102.985,22.095 C102.834999,21.8449987 102.665001,21.6400008 102.475,21.48 C102.284999,21.3199992 102.090001,21.140001 101.89,20.94 C102.550003,20.2999968 103.074998,19.7950018 103.465,19.425 C103.855002,19.0549981 104.154999,18.7650011 104.365,18.555 C104.575001,18.344999 104.734999,18.1950005 104.845,18.105 C104.955001,18.0149995 105.06,17.9400003 105.16,17.88 C105.16,18.280002 105.289999,18.6899979 105.55,19.11 C105.810001,19.5300021 106.089999,19.9549978 106.39,20.385 C106.690002,20.8150021 106.969999,21.2449978 107.23,21.675 C107.490001,22.1050021 107.62,22.5099981 107.62,22.89 L107.62,30.57 C107.62,30.7900011 107.749999,31.0699983 108.01,31.41 C108.270001,31.7500017 108.759996,32.2299969 109.48,32.85 C110.200004,32.4299979 110.714998,31.9350028 111.025,31.365 C111.335002,30.7949971 111.53,30.2250028 111.61,29.655 C111.69,29.0849971 111.705,28.5600024 111.655,28.08 C111.605,27.5999976 111.58,27.2500011 111.58,27.03 C111.58,26.0699952 111.575,25.3700022 111.565,24.93 C111.555,24.4899978 111.470001,24.1350013 111.31,23.865 C111.149999,23.5949987 110.885002,23.3300013 110.515,23.07 C110.144998,22.8099987 109.590004,22.380003 108.85,21.78 L112.24,18.39 C112.400001,18.4900005 112.644998,18.7049983 112.975,19.035 C113.305002,19.3650017 113.634998,19.7099982 113.965,20.07 C114.295002,20.4300018 114.589999,20.7499986 114.85,21.03 C115.110001,21.3100014 115.24,21.45 115.24,21.45 L115.24,21.45 Z M129.52,18.63 C129.52,18.7300005 129.425001,19.0199976 129.235,19.5 C129.044999,19.9800024 128.760002,20.5499967 128.38,21.21 C127.999998,21.8700033 127.540003,22.5749963 127,23.325 C126.459997,24.0750038 125.830004,24.7799967 125.11,25.44 C125.770003,25.44 126.369997,25.3600008 126.91,25.2 C127.450003,25.0399992 127.879998,24.9100005 128.2,24.81 L129.25,24.81 L129.25,32.76 C129.15,32.76 128.815003,32.8199994 128.245,32.94 C127.674997,33.0600006 127.005004,33.2599986 126.235,33.54 C125.464996,33.8200014 124.660004,34.1849978 123.82,34.635 C122.979996,35.0850023 122.230003,35.6499966 121.57,36.33 L120.79,36.33 C120.73,35.6899968 120.460002,35.0650031 119.98,34.455 C119.499998,33.8449969 118.820004,33.54 117.94,33.54 C117.539998,33.54 117.270001,33.6249992 117.13,33.795 C116.989999,33.9650009 116.92,34.1699988 116.92,34.41 C116.92,34.6500012 116.95,34.9049986 117.01,35.175 C117.07,35.4450013 117.1,35.6899989 117.1,35.91 C117.1,36.2700018 117.025001,36.4849996 116.875,36.555 C116.724999,36.6250004 116.480002,36.66 116.14,36.66 C115.699998,36.66 115.46,36.560001 115.42,36.36 C115.38,36.159999 115.36,35.9100015 115.36,35.61 C115.36,34.609995 115.999994,33.3500076 117.28,31.83 C117.28,31.8099999 117.489998,31.5950021 117.91,31.185 C118.330002,30.7749979 118.784998,30.3300024 119.275,29.85 C119.765002,29.3699976 120.194998,28.930002 120.565,28.53 C120.935002,28.129998 121.050001,27.93 120.91,27.93 C120.89,27.93 120.705002,27.9949994 120.355,28.125 C120.004998,28.2550006 119.615002,28.3999992 119.185,28.56 C118.754998,28.7200008 118.345002,28.8649994 117.955,28.995 C117.564998,29.1250007 117.320001,29.19 117.22,29.19 C117.099999,29.19 116.940001,29.1600003 116.74,29.1 C116.539999,29.0399997 116.44,28.9300008 116.44,28.77 C116.44,26.369988 116.475,24.6250055 116.545,23.535 C116.615,22.4449945 116.65,21.8900001 116.65,21.87 C116.750001,21.5499984 117.019998,21.3350006 117.46,21.225 C117.900002,21.1149995 118.484996,20.965001 119.215,20.775 C119.945004,20.5849991 120.794995,20.290002 121.765,19.89 C122.735005,19.489998 123.789994,18.8500044 124.93,17.97 C125.230002,18.1100007 125.42,18.274999 125.5,18.465 C125.58,18.655001 125.66,18.8649988 125.74,19.095 C125.82,19.3250011 125.954999,19.5749986 126.145,19.845 C126.335001,20.1150014 126.699997,20.3999985 127.24,20.7 L127.57,20.7 C127.790001,20.2799979 127.925,19.8900018 127.975,19.53 C128.025,19.1699982 128.065,18.8550014 128.095,18.585 C128.125,18.3149986 128.175,18.1050008 128.245,17.955 C128.315,17.8049993 128.469999,17.73 128.71,17.73 C128.990001,17.73 129.194999,17.8549988 129.325,18.105 C129.455001,18.3550013 129.52,18.5299995 129.52,18.63 L129.52,18.63 Z M125.59,23.19 C125.57,23.1699999 125.180004,23.0150014 124.42,22.725 C123.659996,22.4349985 122.760005,22.1200017 121.72,21.78 L121.72,26.61 C122.200002,26.5499997 122.669998,26.3500017 123.13,26.01 C123.590002,25.6699983 123.999998,25.305002 124.36,24.915 C124.720002,24.524998 125.014999,24.1600017 125.245,23.82 C125.475001,23.4799983 125.59,23.2700004 125.59,23.19 L125.59,23.19 Z M124.18,31.83 C124.18,31.1099964 124.195,30.6050015 124.225,30.315 C124.255,30.0249985 124.27,29.7750011 124.27,29.565 C124.27,29.354999 124.255,29.0850017 124.225,28.755 C124.195,28.4249984 124.130001,27.8400042 124.03,27 C123.769999,27.1200006 123.395002,27.379998 122.905,27.78 C122.414998,28.180002 121.930002,28.6049977 121.45,29.055 C120.969998,29.5050023 120.545002,29.9149982 120.175,30.285 C119.804998,30.6550018 119.6,30.8499999 119.56,30.87 C120.520005,30.87 121.204998,30.8799999 121.615,30.9 C122.025002,30.9200001 122.339999,30.9599997 122.56,31.02 C122.780001,31.0800003 122.979999,31.1749994 123.16,31.305 C123.340001,31.4350006 123.679998,31.6099989 124.18,31.83 L124.18,31.83 Z" id="News" fill="#000000" sketch:type="MSShapeGroup"></path>
            </g>
            <g id="menu" sketch:type="MSLayerGroup" transform="translate(199.000000, 117.000000)">
                <rect id="Rectangle-7" stroke="#000000" fill="#FFFFFF" sketch:type="MSShapeGroup" x="0" y="0" width="145" height="214"></rect>
                <rect id="Rectangle-7" fill="#DFDFDF" sketch:type="MSShapeGroup" x="23" y="50" width="99" height="6"></rect>
                <rect id="Rectangle-8" fill="#DFDFDF" sketch:type="MSShapeGroup" x="23" y="67" width="99" height="6"></rect>
                <rect id="Rectangle-9" fill="#DFDFDF" sketch:type="MSShapeGroup" x="23" y="84" width="99" height="6"></rect>
                <rect id="Rectangle-10" fill="#DFDFDF" sketch:type="MSShapeGroup" x="23" y="101" width="99" height="6"></rect>
                <rect id="Rectangle-11" fill="#DFDFDF" sketch:type="MSShapeGroup" x="23" y="118" width="99" height="6"></rect>
                <rect id="Rectangle-12" fill="#DFDFDF" sketch:type="MSShapeGroup" x="23" y="135" width="99" height="6"></rect>
                <rect id="Rectangle-13" fill="#DFDFDF" sketch:type="MSShapeGroup" x="23" y="152" width="99" height="6"></rect>
                <rect id="Rectangle-14" fill="#DFDFDF" sketch:type="MSShapeGroup" x="23" y="169" width="99" height="6"></rect>
                <path d="M32.08,36.44 C37.072,36.44 43.696,33.176 48.448,29.624 C52.72,26.504 58.96,20.312 60.736,18.584 L60.784,18.584 C58.192,21.8 53.392,29.864 50.608,33.752 C50.32,34.136 50.08,34.712 50.464,35.048 C50.896,35.336 51.136,34.952 51.712,34.424 C54.448,31.832 57.232,29.336 60.88,26.168 C64.048,23.432 67.312,20.744 70.528,18.344 L70.576,18.344 C68.128,20.408 64.528,24.344 62.608,26.84 C60.544,29.48 59.008,31.736 59.056,33.464 C59.104,34.856 60.016,35.288 61.216,35.24 C62.56,35.192 64.192,34.088 65.152,33.32 C66.352,32.36 67.216,31.592 67.84,31.016 C68.176,30.68 68.368,30.488 68.272,30.344 C68.128,30.2 67.936,30.392 67.696,30.584 C67.168,31.064 66.352,31.784 65.392,32.552 C63.856,33.8 62.512,34.52 61.744,34.52 C61.36,34.52 61.12,34.28 61.12,33.896 C61.168,32.12 63.76,28.712 66.256,25.592 C68.512,22.76 71.968,19.016 74.272,16.616 C75.376,15.512 75.808,14.84 76.096,14.216 C76.336,13.688 76.288,12.92 75.952,13.016 C75.712,13.112 76.048,13.4 75.424,14.168 C74.848,14.936 73.84,15.704 72.208,16.376 C70.528,17.048 68.56,17.192 67.264,17.24 C66.352,17.288 64.96,17.192 63.76,17 C64,16.712 64.192,16.52 64.432,16.232 C65.104,15.464 65.2,15.08 64.48,14.984 C64,14.936 63.376,15.464 62.944,15.848 C62.608,16.136 62.272,16.472 62.032,16.712 C59.872,16.376 56.176,15.608 52.192,15.464 C44.704,15.176 40.336,18.104 39.856,22.568 C39.616,25.112 41.056,27.56 43.84,28.376 C44.368,28.52 44.704,28.472 44.752,28.328 C44.8,28.184 44.56,28.232 44.176,28.088 C41.104,27.032 40.528,24.632 40.912,22.712 C41.824,18.392 46.864,16.424 52.096,16.424 C56.272,16.424 59.296,16.76 61.6,17.192 C56.848,21.608 52.624,25.928 48.208,29.144 C43.168,32.888 36.688,35.864 32.56,35.864 C30.16,35.864 28.912,35.144 29.104,34.184 C29.2,33.656 29.584,33.416 30.016,32.984 C30.496,32.6 30.976,32.12 31.072,31.352 C31.168,30.392 30.352,29.72 29.248,29.72 C27.52,29.72 26.32,31.4 26.368,32.984 C26.512,35.72 29.392,36.44 32.032,36.44 L32.08,36.44 Z M55.264,30.392 C57.616,27.272 61.072,20.84 63.424,17.48 C64.624,17.624 66.016,17.72 67.12,17.72 C68.56,17.672 70.336,17.48 71.728,16.952 L71.728,17 C69.232,18.728 66.928,20.504 64.288,22.664 C60.976,25.352 57.136,28.712 55.264,30.392 L55.264,30.392 Z M70.576,34.712 C69.856,34.712 69.472,34.328 69.472,33.608 C69.472,33.32 69.568,32.888 69.76,32.504 C70.864,32.216 72.496,31.64 73.888,30.968 C75.328,30.248 76.864,29.288 76.96,28.04 C77.008,27.416 76.624,26.744 75.568,26.744 L75.52,26.744 C74.224,26.744 72.784,27.368 71.392,28.088 C70.48,28.568 69.568,29.144 69.04,29.528 C68.32,30.056 67.888,30.392 67.264,30.968 C67.072,31.16 66.88,31.352 66.976,31.496 C67.072,31.592 67.216,31.544 67.456,31.352 C67.744,31.112 68.272,30.632 68.416,30.488 L68.464,30.536 C67.504,31.688 67.072,32.552 67.024,33.512 C66.976,34.76 67.792,35.432 69.568,35.432 C71.2,35.432 72.976,34.808 74.992,33.464 C75.856,32.888 77.392,31.64 78.016,31.064 C78.304,30.824 78.496,30.584 78.4,30.44 C78.304,30.344 78.16,30.392 77.872,30.632 C76.96,31.448 75.856,32.312 74.944,32.936 C72.832,34.376 71.2,34.712 70.576,34.712 L70.576,34.712 Z M70.048,31.976 C70.624,31.016 71.824,29.48 72.592,28.76 C73.552,27.848 74.272,27.368 74.704,27.368 C75.136,27.368 75.328,27.608 75.28,28.04 C75.232,28.712 74.512,29.72 73.312,30.536 C72.304,31.208 71.008,31.736 70.048,31.976 L70.048,31.976 Z M87.904,35.288 C89.392,35.288 91.264,34.088 92.224,33.368 C93.232,32.6 94.672,31.304 95.104,30.872 C95.44,30.536 95.584,30.344 95.488,30.248 C95.392,30.152 95.248,30.2 94.864,30.536 C94.336,31.016 93.376,31.88 92.56,32.504 C91.504,33.32 90.832,33.704 90.256,33.992 C89.872,34.184 89.344,34.376 89.104,34.184 C88.912,34.04 88.912,33.752 89.296,33.128 C89.536,32.744 90.112,31.928 90.88,31.016 C91.648,30.056 92.656,28.952 92.8,28.088 C92.896,27.272 92.32,26.792 91.312,26.792 C89.872,26.792 87.76,28.136 86.08,29.384 C84.4,30.632 82.816,32.024 81.664,32.984 L81.616,32.936 C82.144,32.168 83.152,30.872 83.872,29.912 C84.496,29.048 84.88,28.424 84.88,27.848 C84.88,27.32 84.592,26.792 83.68,26.792 C82.672,26.792 81.712,27.368 80.416,28.376 C79.552,29.048 78.496,30.056 77.92,30.584 C77.344,31.112 77.104,31.352 77.2,31.496 C77.344,31.64 77.536,31.496 78.016,31.064 C78.688,30.44 79.456,29.768 80.08,29.24 C80.656,28.76 81.376,28.232 81.952,27.944 C82.24,27.8 82.528,27.704 82.672,27.896 C82.768,28.04 82.672,28.28 82.336,28.712 C81.808,29.384 80.944,30.488 80.416,31.208 C79.648,32.216 78.64,33.8 78.304,34.424 C77.92,35.096 78.256,35.192 78.928,35.192 C79.456,35.192 79.744,35.096 80.176,34.76 C82.288,33.128 83.44,32.024 85.552,30.392 C87.088,29.192 88.432,28.376 89.296,27.944 C89.776,27.704 90.304,27.512 90.544,27.656 C90.784,27.8 90.688,28.088 90.496,28.328 C89.92,29 89.2,29.816 88.48,30.68 C87.568,31.784 86.512,32.984 86.464,34.04 C86.416,34.856 86.992,35.288 87.904,35.288 L87.904,35.288 Z M107.056,27.32 C105.52,28.52 104.176,29.72 101.872,31.496 C100.384,32.648 99.328,33.416 98.272,33.992 C97.792,34.232 97.36,34.28 97.168,34.088 C97.024,33.944 97.024,33.608 97.216,33.224 C97.456,32.696 98.224,31.64 98.992,30.632 C99.952,29.432 100.864,28.328 101.488,27.656 C102.064,27.032 101.968,26.888 100.96,26.888 C100.048,26.888 99.424,27.08 98.176,27.944 C97.024,28.712 95.296,30.152 94.768,30.632 C94.24,31.112 94.144,31.304 94.24,31.4 C94.384,31.496 94.576,31.352 94.96,31.016 C95.44,30.584 95.92,30.2 96.64,29.624 C97.36,29.048 98.416,28.28 98.752,28.136 C97.264,29.528 96.352,30.632 95.344,31.976 C94.864,32.6 94.48,33.272 94.432,33.944 C94.384,34.808 95.008,35.288 96.016,35.288 C97.456,35.288 99.184,34.136 101.152,32.648 C102.4,31.688 104.032,30.392 104.992,29.624 L105.04,29.672 C104.32,30.392 103.312,31.4 102.784,32.168 C102.4,32.744 102.112,33.512 102.16,34.232 C102.208,35.384 103.072,36.152 104.368,36.296 C106.24,36.488 107.824,36.344 109.888,35.816 C112.24,35.24 114.688,33.896 116.368,32.6 C117.568,31.64 119.392,29.96 119.488,27.992 C119.632,25.544 117.616,24.824 115.792,24.92 C113.584,25.016 112.144,26.36 111.808,26.792 C111.664,26.984 111.568,27.128 111.664,27.224 C111.712,27.272 111.904,27.08 112.048,26.936 C112.528,26.552 113.728,25.4 115.792,25.304 C117.184,25.256 118.48,25.976 118.384,27.992 C118.288,29.768 116.8,31.544 115.648,32.456 C114.352,33.512 111.952,34.904 109.792,35.432 C107.92,35.912 106.624,35.96 105.472,35.864 C104.896,35.816 104.416,35.576 104.272,35.192 C104.032,34.616 104.32,33.896 104.512,33.512 C104.8,32.936 105.808,31.64 106.624,30.632 C107.584,29.384 108.304,28.616 109.168,27.56 C109.744,26.888 109.264,26.792 108.448,26.792 C107.728,26.792 107.44,27.032 107.056,27.32 L107.056,27.32 Z" id="Menu" fill="#000000" sketch:type="MSShapeGroup"></path>
            </g>
            <g id="json" sketch:type="MSLayerGroup" transform="translate(65.000000, 89.000000)">
                <rect id="jsonview" fill="#F1F1F1" sketch:type="MSShapeGroup" x="0" y="0" width="420" height="290"></rect>
                <text id="{" sketch:type="MSTextLayer" font-family="Courier New" font-size="16" font-weight="bold" fill="#000000">
                    <tspan x="12" y="62.2050781">{</tspan>
                    <tspan x="12" y="80.2050781">  name: "Delmonico's",</tspan>
                    <tspan x="12" y="98.2050781">  date: 1865,</tspan>
                    <tspan x="12" y="116.205078">  address: "22 Broad Street, NY",</tspan>
                    <tspan x="12" y="134.205078">  photos: ["table.jpg"],</tspan>
                    <tspan x="12" y="152.205078">  news: ["//www.nytimes.com/1865/12/23/</tspan>
                    <tspan x="12" y="170.205078">news/new-england-society-anniversary-</tspan>
                    <tspan x="12" y="188.205078">dinner-delmonico-s-last-evening-speeches-</tspan>
                    <tspan x="12" y="206.205078">senator.html"]</tspan>
                    <tspan x="12" y="224.205078">}</tspan>
                </text>
            </g>
        </g>
    </g>
</svg>